<?xml version="1.0" standalone="no"?>
<!DOCTYPE svg PUBLIC "-//W3C//DTD SVG 20010904//EN"
 "http://www.w3.org/TR/2001/REC-SVG-20010904/DTD/svg10.dtd">
<svg version="1.0" xmlns="http://www.w3.org/2000/svg"
 width="1080.000000pt" height="1080.000000pt" viewBox="0 0 1080.000000 1080.000000"
 preserveAspectRatio="xMidYMid meet">
<metadata>
Created by potrace 1.14, written by Peter Selinger 2001-2017
</metadata>
<g transform="translate(0.000000,1080.000000) scale(0.100000,-0.100000)"
fill="#000000" stroke="none">
<path d="M5063 10789 c-555 -35 -1137 -166 -1663 -373 -181 -72 -524 -238
-701 -341 -416 -241 -765 -510 -1115 -859 -445 -446 -762 -891 -1040 -1460
-270 -555 -438 -1131 -509 -1746 -137 -1197 139 -2429 773 -3448 l76 -122 61
0 c34 0 112 7 175 15 63 8 169 19 235 25 168 16 364 46 400 61 21 8 118 13
330 15 292 3 358 9 495 43 25 6 112 27 194 47 82 19 186 48 230 63 151 52 190
50 166 -8 -9 -22 -11 -52 -6 -98 11 -111 32 -128 85 -68 33 38 41 42 41 21 0
-7 -23 -29 -50 -47 -40 -27 -50 -39 -48 -59 5 -41 43 -27 103 36 36 37 56 51
60 43 8 -11 -27 -47 -109 -113 -28 -23 -35 -35 -30 -50 11 -37 22 -41 60 -21
29 16 34 23 29 43 -8 33 48 90 71 71 28 -23 15 -41 -106 -139 l-31 -25 16 -38
15 -37 31 15 c36 19 46 41 31 66 -16 25 -16 24 15 54 31 28 51 32 59 10 9 -23
27 -18 59 15 20 20 35 28 47 24 11 -3 25 0 33 6 20 16 45 5 45 -20 0 -19 1
-19 38 -4 20 9 45 21 55 26 49 25 14 -44 -37 -72 -24 -13 -28 -13 -36 0 -6 10
-7 -8 -3 -53 5 -60 4 -67 -11 -61 -9 3 -23 0 -32 -7 -13 -10 -17 -10 -25 2
-12 20 -12 24 11 44 11 10 20 24 20 32 0 7 5 13 10 13 6 0 10 11 10 25 0 14
-4 25 -10 25 -5 0 -10 -5 -10 -11 0 -5 -5 -7 -10 -4 -6 4 -18 1 -26 -6 -12
-10 -18 -8 -30 10 -14 19 -18 20 -33 9 -40 -32 -63 -40 -72 -26 -6 9 -9 5 -9
-14 0 -16 -4 -28 -10 -28 -5 0 -10 -7 -10 -15 0 -19 14 -19 30 0 7 8 16 15 21
15 12 0 11 -87 -1 -95 -19 -12 -10 -25 13 -20 15 4 28 1 36 -9 11 -13 9 -21
-9 -46 -16 -23 -19 -34 -11 -44 6 -7 7 -17 3 -21 -4 -5 -1 -5 6 -1 7 4 24 5
38 2 19 -5 24 -12 23 -39 0 -27 -2 -29 -9 -12 -6 14 -9 16 -10 5 -1 -8 -4 -27
-6 -42 -4 -26 16 -52 24 -30 5 17 18 15 37 -4 15 -16 14 -19 -17 -48 -31 -29
-32 -31 -12 -34 16 -2 20 -8 17 -22 -4 -15 1 -18 29 -17 43 2 43 -15 -1 -47
-25 -19 -41 -23 -63 -19 -28 5 -29 4 -26 -23 3 -26 8 -30 48 -35 25 -4 56 -2
70 3 30 11 70 2 70 -15 0 -24 -57 -57 -92 -55 -25 2 -33 -1 -36 -16 -5 -23 22
-46 55 -46 16 0 23 6 23 20 0 13 7 20 18 20 11 0 27 10 38 21 18 20 52 39 83
45 8 1 23 12 34 23 18 18 19 21 4 26 -8 4 -13 13 -10 20 11 30 -100 32 -137 3
-17 -14 -26 -16 -29 -7 -2 6 4 16 12 21 9 4 23 15 31 23 8 8 25 15 39 15 16 0
28 8 35 25 10 21 9 25 -3 25 -8 0 -15 7 -15 15 0 24 -29 29 -50 10 -18 -16
-20 -16 -20 -2 0 27 -20 30 -44 8 -26 -25 -36 -26 -36 -7 0 8 14 19 30 25 17
5 30 15 30 21 0 6 12 9 27 8 21 -2 28 2 31 17 7 37 20 39 57 6 21 -18 47 -31
63 -31 21 0 33 -10 56 -48 59 -95 176 -173 276 -185 56 -7 184 21 224 48 37
25 73 21 108 -12 18 -17 34 -24 47 -20 16 4 21 0 21 -13 0 -11 5 -22 10 -25 6
-3 10 -1 10 4 0 14 47 14 55 1 3 -5 1 -10 -5 -10 -8 0 -10 -9 -6 -26 7 -25 5
-26 -20 -21 -40 7 -59 -2 -38 -17 12 -9 15 -20 9 -44 -3 -18 -11 -32 -16 -32
-17 0 -9 -39 9 -43 9 -2 7 -3 -5 -2 -14 1 -23 -3 -23 -11 0 -8 -5 -14 -11 -14
-6 0 -9 7 -5 15 3 9 0 15 -9 15 -12 0 -15 -13 -15 -57 1 -70 15 -93 54 -86 27
5 27 5 21 -29 -5 -27 -3 -37 9 -41 18 -7 21 -32 6 -42 -5 -3 -18 -1 -29 4 -23
13 -63 -15 -85 -58 -12 -22 -12 -29 0 -46 8 -10 14 -22 14 -25 0 -6 -33 -10
-95 -12 -16 0 -33 -6 -37 -12 -4 -6 -13 -11 -20 -11 -7 -1 -11 -7 -9 -15 2 -8
6 -26 8 -40 3 -16 22 -37 52 -58 34 -23 54 -46 67 -77 11 -29 24 -45 35 -45
10 0 28 -15 40 -32 12 -18 31 -40 41 -48 24 -20 26 -46 6 -90 -24 -52 -28
-137 -10 -193 8 -26 21 -47 29 -47 7 0 17 -8 20 -17 10 -27 66 -73 96 -79 15
-4 30 -11 33 -15 3 -5 16 -9 30 -9 21 0 24 -4 24 -40 0 -51 23 -77 108 -127
36 -21 82 -53 101 -72 l36 -33 140 -9 c200 -11 267 -11 260 2 -4 6 2 13 14 16
12 3 21 9 21 12 0 16 -14 20 -32 10 -28 -15 -33 -4 -11 25 12 17 28 25 47 26
16 0 26 3 23 6 -7 8 25 33 68 54 34 16 105 84 105 100 0 6 -10 15 -22 20 -30
12 -61 46 -82 91 -9 19 -34 55 -56 80 -22 24 -40 47 -40 52 0 4 -16 31 -36 59
-19 29 -38 65 -41 80 -7 34 -19 35 -98 7 -63 -22 -165 -83 -165 -100 0 -5 -5
-9 -11 -9 -5 0 -8 4 -5 8 7 11 -5 25 -39 44 -16 9 -30 23 -30 30 0 7 -11 23
-25 36 -23 20 -24 23 -7 33 18 11 24 64 7 74 -5 3 -7 11 -5 18 2 7 6 24 9 38
7 33 62 64 148 84 54 12 67 12 114 -3 30 -9 54 -20 54 -24 0 -4 17 -16 38 -27
41 -21 65 -42 102 -91 14 -18 59 -69 101 -114 41 -44 97 -107 123 -138 27 -32
55 -58 63 -58 17 0 83 -68 83 -85 0 -18 64 -85 81 -85 9 0 24 -9 34 -20 18
-20 115 -70 163 -85 12 -3 22 -10 22 -14 0 -15 45 -28 77 -24 55 9 68 34 66
127 -1 44 -4 95 -7 111 -3 17 -8 49 -12 73 -4 23 -11 45 -15 48 -5 3 -9 16 -9
29 0 13 -5 27 -11 31 -6 3 -8 16 -5 27 3 13 -4 38 -19 64 -25 41 -34 90 -16
78 14 -8 120 50 159 86 22 20 32 39 30 53 -3 18 -9 21 -40 18 -41 -4 -36 -14
-69 131 -12 53 -26 97 -31 97 -6 0 -8 9 -5 21 6 22 -17 138 -35 175 -11 22 -3
64 12 64 13 0 143 -71 165 -91 11 -9 31 -19 45 -21 22 -3 25 0 22 27 -2 17
-14 39 -26 50 -12 11 -40 46 -62 78 -21 32 -46 63 -55 67 -9 5 -22 23 -28 39
-21 48 -72 49 -171 3 -48 -23 -50 -47 -6 -66 41 -17 56 -42 56 -90 0 -20 3
-36 8 -36 4 0 8 -24 8 -52 2 -65 19 -221 33 -308 18 -107 14 -147 -13 -175
-31 -31 -71 -22 -71 16 0 14 -7 25 -16 27 -10 2 -23 26 -34 63 -11 35 -26 64
-37 70 -11 6 -18 18 -17 27 3 32 -1 42 -26 64 -14 12 -25 26 -25 32 0 6 -14
29 -30 50 -17 22 -30 47 -30 55 0 9 -9 30 -20 46 -11 17 -20 40 -20 52 0 24
-16 40 -22 21 -2 -6 -12 5 -21 24 -9 19 -24 41 -32 48 -12 10 -13 16 -4 26 9
11 8 14 -5 14 -9 0 -16 8 -16 18 0 10 -4 22 -9 28 -15 15 -17 50 -3 66 10 12
9 22 -3 50 -8 20 -16 60 -18 89 -3 53 -2 55 42 96 80 73 163 102 297 104 92 2
143 -26 237 -124 49 -52 77 -90 77 -104 0 -24 51 -53 100 -56 27 -2 60 -32 60
-53 0 -7 -9 -18 -20 -24 -11 -6 -20 -18 -20 -26 0 -22 54 -98 117 -163 29 -31
53 -62 53 -68 0 -7 6 -13 14 -13 8 0 17 -11 20 -25 7 -29 49 -60 70 -52 9 4
12 14 9 25 -3 12 3 28 16 41 12 12 21 28 21 36 0 8 7 15 15 15 18 0 19 -9 5
-46 -9 -24 -9 -25 5 -14 12 10 15 10 15 -3 0 -9 -4 -19 -10 -22 -5 -3 -14 -15
-20 -25 -9 -16 -7 -19 17 -17 24 2 28 -2 26 -21 -2 -12 1 -22 6 -22 5 0 42 32
82 70 40 39 76 70 82 70 23 0 46 -47 47 -92 0 -34 6 -54 20 -68 21 -21 60 -27
60 -10 0 6 6 10 14 10 8 0 31 16 52 35 22 19 42 35 45 35 3 0 20 20 39 45 18
24 36 42 41 40 4 -3 12 8 17 25 10 28 9 30 -21 34 -94 14 -125 18 -149 20 -31
1 -34 10 -13 46 16 27 20 110 6 110 -5 0 -19 -9 -32 -19 -22 -18 -22 -20 -6
-26 20 -8 23 -45 5 -63 -16 -16 -28 -15 -28 3 0 8 -7 15 -15 15 -23 0 -18 42
10 80 14 19 25 39 25 44 0 6 11 34 25 61 29 60 31 97 7 173 -11 31 -19 68 -20
81 -1 13 -7 28 -14 32 -21 13 -5 18 60 20 38 1 66 7 73 15 6 8 20 14 30 14 25
0 24 12 -1 28 -11 7 -20 17 -20 23 0 6 -6 17 -14 25 -12 11 -14 37 -9 132 8
158 8 315 -1 382 -4 30 -11 89 -16 130 -10 85 -57 241 -76 252 -7 5 -10 16 -7
26 2 10 -3 24 -11 31 -9 8 -16 21 -16 30 0 9 -7 29 -15 45 -8 15 -15 39 -15
52 0 13 -4 24 -8 24 -5 0 -14 17 -20 39 -7 21 -19 44 -27 51 -8 7 -15 20 -15
30 0 9 -10 28 -21 41 -12 13 -28 39 -36 57 -9 23 -19 32 -29 28 -7 -3 -14 0
-14 7 0 39 -154 142 -199 132 -19 -4 -36 2 -61 20 -43 32 -82 33 -95 3 -12
-27 -68 -37 -93 -16 -10 8 -29 20 -43 27 -15 7 -37 23 -50 35 -13 12 -48 36
-76 55 -29 18 -53 39 -53 47 0 8 -7 14 -16 14 -8 0 -22 6 -29 13 -36 32 -45
36 -59 31 -24 -9 -20 -42 5 -46 13 -2 30 -20 45 -48 13 -24 32 -49 42 -55 18
-10 114 -91 178 -150 31 -29 47 -42 107 -86 15 -11 27 -27 27 -35 0 -16 15
-46 43 -83 9 -13 17 -36 17 -50 0 -15 5 -32 12 -39 9 -9 9 -12 -1 -12 -8 0 -6
-8 7 -25 25 -31 36 -89 22 -114 -7 -14 -7 -22 1 -26 5 -4 8 -12 6 -18 -2 -7 2
-26 9 -43 12 -28 11 -37 -6 -72 -22 -44 -40 -62 -40 -38 0 8 -5 18 -10 21 -15
9 -50 -4 -50 -19 0 -21 -47 -59 -61 -50 -8 4 -31 7 -51 5 -35 -2 -40 0 -53 33
-17 41 -15 39 -51 26 -76 -29 -114 -20 -80 19 18 21 3 61 -23 61 -13 0 -21 -9
-26 -30 -4 -16 -18 -43 -32 -59 l-26 -29 -27 28 c-16 16 -30 26 -34 23 -3 -3
-13 3 -23 12 -11 11 -18 14 -21 6 -2 -6 -10 -11 -17 -11 -7 0 -16 -6 -19 -12
-3 -9 -8 -8 -16 5 -9 15 -19 17 -49 12 -31 -5 -40 -2 -60 21 -30 34 -43 78
-28 94 9 10 7 11 -10 6 -16 -5 -26 0 -42 22 -11 16 -33 35 -48 41 -30 12 -55
54 -46 77 3 8 -3 17 -13 20 -38 14 -84 67 -84 97 0 19 -10 38 -28 55 -15 15
-38 44 -51 65 -12 20 -29 37 -37 37 -9 0 -14 11 -14 35 0 22 -6 38 -15 41 -8
4 -15 14 -15 24 0 17 -40 70 -53 70 -4 0 -21 12 -37 27 -30 26 -40 53 -20 53
6 0 10 7 10 15 0 8 -6 15 -14 15 -9 0 -12 7 -9 21 5 16 2 20 -13 18 -10 -1
-31 3 -46 9 -24 10 -28 17 -28 53 0 27 -6 46 -16 54 -25 18 -44 84 -43 150 1
33 -4 74 -11 90 -7 17 -13 71 -15 120 -1 50 -3 111 -3 138 -1 26 -7 47 -13 47
-5 0 -8 -4 -4 -9 3 -5 1 -12 -5 -16 -5 -3 -10 -17 -10 -30 0 -13 -4 -26 -8
-29 -5 -3 -8 -19 -7 -36 1 -17 -2 -33 -7 -36 -4 -3 -8 5 -8 18 0 37 -16 52
-54 52 -32 0 -37 4 -51 40 -10 23 -18 81 -21 139 -2 54 -6 103 -9 108 -3 5 -1
26 4 46 14 54 1 107 -27 111 -23 3 -30 26 -12 37 6 4 7 13 1 23 -4 9 -7 36 -5
60 2 23 0 42 -5 42 -5 0 -15 14 -22 32 -10 25 -10 33 -1 36 7 2 19 20 27 39
18 43 19 48 2 35 -7 -6 -18 -7 -26 -3 -9 6 -10 11 -2 15 6 4 16 16 22 27 9 19
9 19 -13 7 -13 -7 -27 -17 -31 -23 -5 -6 -6 -1 -2 10 4 11 8 28 9 37 1 10 9
25 18 35 30 36 31 44 2 74 l-27 29 35 33 c19 18 40 42 46 54 10 18 9 20 -13
15 -29 -5 -29 -4 -11 34 20 42 27 134 10 134 -8 0 -14 9 -14 20 0 14 -7 20
-22 20 -21 0 -21 0 -2 23 29 34 45 65 35 72 -5 3 0 24 11 47 17 36 19 49 10
86 -8 35 -6 52 7 83 9 21 21 39 28 39 17 0 26 39 13 55 -10 13 -8 15 14 15 19
0 26 -5 26 -19 0 -11 5 -23 10 -26 6 -3 10 -15 10 -26 0 -10 4 -19 10 -19 5 0
16 -13 25 -30 8 -16 27 -33 40 -36 16 -4 25 -13 25 -26 0 -18 2 -19 16 -7 15
12 16 11 10 -11 -5 -17 -4 -20 2 -12 5 8 13 13 18 13 5 -1 9 7 9 17 0 10 -7
16 -18 16 -15 -2 -17 3 -12 27 5 23 0 41 -26 80 -28 44 -32 59 -32 117 0 49 6
81 23 117 45 101 65 224 38 241 -13 8 -53 -35 -80 -84 -26 -49 -38 -40 -33 26
6 76 15 114 32 130 10 10 10 18 2 34 -9 17 -8 30 9 62 29 58 46 121 39 146 -3
11 -1 49 4 83 5 34 11 103 14 152 4 50 8 96 11 103 2 7 -1 22 -6 33 -8 15 -6
26 12 50 13 17 22 41 20 55 -2 13 2 24 8 24 6 0 19 8 29 18 21 19 71 108 71
126 0 6 11 24 25 40 14 16 25 35 25 43 0 17 61 93 75 93 6 0 16 9 23 20 7 11
16 20 21 20 5 0 26 16 47 35 20 19 41 35 45 35 5 0 8 3 8 8 -4 21 3 32 19 32
9 0 23 9 30 21 7 12 16 18 19 15 4 -3 12 3 20 14 8 11 21 20 28 20 8 0 18 12
21 28 9 35 32 62 56 62 10 0 18 4 18 9 0 4 11 6 25 3 20 -3 25 0 25 16 0 23
19 40 29 26 12 -18 81 -3 81 17 0 17 38 51 49 45 5 -4 36 8 67 25 46 24 64 29
88 23 17 -4 72 -8 121 -8 50 -1 95 -4 102 -9 6 -4 24 -7 40 -7 88 2 183 -3
183 -10 0 -5 15 -13 34 -20 18 -6 42 -20 51 -30 10 -11 23 -20 30 -20 6 0 34
-15 61 -32 53 -35 80 -58 67 -58 -13 0 31 -27 55 -33 19 -4 22 -2 17 14 -5 14
-2 19 11 19 10 0 15 -3 11 -6 -10 -10 49 -54 74 -55 33 -1 61 -13 57 -24 -2
-5 13 -12 34 -16 38 -6 88 -33 88 -49 0 -5 9 -12 20 -15 11 -3 20 -12 20 -20
0 -7 6 -16 13 -18 10 -4 10 -6 0 -6 -7 -1 -13 -5 -13 -10 0 -18 75 -10 98 12
19 18 22 18 22 4 0 -25 32 -20 53 9 18 24 18 26 1 38 -14 10 -16 22 -11 57 3
25 9 53 13 62 4 13 1 17 -14 17 -11 0 -22 -7 -26 -15 -3 -8 -10 -15 -15 -15
-18 0 -18 27 0 65 16 32 17 45 9 71 -6 18 -18 38 -27 45 -8 7 -19 23 -24 36
-9 24 -29 32 -29 12 0 -8 -4 -8 -14 0 -11 10 -16 7 -23 -15 -8 -23 -10 -25
-22 -10 -9 11 -10 16 -2 16 22 0 -61 79 -90 85 -16 4 -34 15 -39 26 -7 11 -21
19 -37 19 -30 0 -124 25 -168 46 -89 40 -154 57 -224 58 -67 1 -75 4 -95 29
-16 20 -34 28 -71 33 -28 4 -62 15 -77 25 -14 11 -31 19 -37 19 -17 0 -13 31
6 52 15 17 15 18 -6 18 -21 0 -79 -27 -91 -41 -3 -4 -22 -14 -44 -23 -68 -28
-73 -20 -22 38 19 21 39 35 45 31 6 -3 11 -1 11 6 0 6 8 9 19 6 15 -4 20 2 25
28 9 44 56 108 109 146 23 17 46 37 51 46 7 13 3 14 -24 8 l-32 -7 17 26 c10
14 23 26 30 26 7 0 15 6 18 14 5 12 50 26 98 31 44 5 50 29 12 47 -15 7 -26
16 -25 21 1 4 2 18 2 32 0 14 3 24 8 23 12 -4 52 26 52 39 0 7 4 13 10 13 13
0 50 32 50 43 0 14 -43 -4 -70 -28 -14 -13 -37 -27 -52 -30 -23 -6 -54 -36
-161 -158 -20 -24 -37 -14 -19 11 12 17 15 23 34 74 6 15 22 39 36 53 30 31
18 55 -16 34 -18 -11 -24 -10 -40 4 -26 23 -35 21 -49 -11 -7 -15 -37 -52 -66
-82 -29 -30 -59 -64 -67 -75 -8 -11 -31 -32 -51 -47 -20 -15 -64 -54 -98 -88
-49 -48 -65 -59 -76 -50 -19 16 -48 -4 -73 -49 -11 -20 -29 -53 -41 -74 -25
-46 -30 -127 -6 -107 25 21 29 -13 6 -59 -23 -45 -28 -97 -8 -104 9 -3 7 -16
-8 -53 -21 -51 -51 -67 -49 -26 0 17 -5 22 -23 22 -18 0 -23 5 -23 25 0 14 -5
25 -11 25 -15 0 -38 -30 -39 -50 0 -8 -21 -37 -46 -64 -35 -38 -42 -43 -34
-22 5 15 21 43 35 64 14 20 25 41 25 47 0 5 7 23 15 38 16 31 32 127 20 127
-11 0 -44 -43 -45 -58 0 -7 -7 -15 -15 -18 -8 -4 -15 -12 -15 -19 0 -19 -37
-61 -46 -53 -8 9 14 55 64 136 47 76 41 95 -16 47 -19 -16 -42 -25 -65 -25
-36 0 -67 23 -47 35 16 10 40 73 34 89 -3 8 1 25 9 38 8 13 18 34 22 48 4 14
18 49 32 79 13 29 30 77 38 107 19 75 41 105 71 98 18 -5 24 -2 24 10 0 9 3
16 8 16 9 0 32 49 32 70 0 9 3 20 7 24 15 15 31 80 24 98 -6 18 -10 15 -34
-21 -16 -23 -38 -47 -51 -53 -13 -5 -29 -21 -35 -34 -6 -14 -21 -29 -33 -34
-13 -5 -17 -9 -10 -9 19 -1 14 -21 -6 -21 -10 0 -34 -19 -53 -41 -19 -23 -51
-59 -71 -80 -21 -22 -38 -49 -38 -62 0 -12 -10 -37 -23 -56 -12 -19 -30 -46
-39 -60 -9 -14 -17 -39 -17 -54 -1 -15 -10 -45 -21 -67 -11 -22 -20 -57 -20
-80 0 -22 -5 -40 -11 -40 -6 0 -9 -10 -7 -22 2 -13 -3 -28 -11 -34 -15 -12
-20 -66 -24 -322 -2 -113 0 -156 10 -163 7 -6 17 -8 23 -4 17 10 12 -54 -7
-86 -19 -31 -38 -37 -46 -15 -3 8 -20 16 -38 18 -32 3 -40 11 -59 58 -5 14
-14 32 -19 40 -6 8 -17 36 -27 63 -15 43 -20 48 -55 53 -33 6 -37 9 -30 28 8
24 4 56 -9 56 -4 0 -13 -7 -20 -15 -9 -11 -16 -13 -24 -5 -7 7 -6 14 2 22 9 9
7 14 -6 24 -24 18 -32 17 -32 -5 0 -10 -7 -24 -15 -31 -23 -19 -19 -58 7 -62
21 -3 21 -4 4 -20 -20 -21 -34 -23 -33 -5 0 6 -1 23 -1 36 l-2 24 -20 -26
c-11 -14 -20 -32 -20 -41 0 -9 -4 -16 -10 -16 -5 0 -10 -15 -11 -32 0 -18 -3
-27 -6 -20 -4 10 -8 9 -17 -3 -10 -14 -14 -14 -23 -3 -14 16 11 95 36 116 12
10 13 15 3 18 -17 8 -5 24 13 17 10 -3 15 1 15 12 0 13 -6 15 -30 10 l-29 -6
4 60 c4 49 2 61 -10 61 -10 0 -16 -18 -21 -62 -5 -48 -13 -67 -32 -85 -23 -21
-24 -24 -9 -36 15 -11 15 -16 -8 -62 -13 -27 -25 -57 -25 -65 0 -8 -7 -28 -15
-44 -8 -15 -13 -32 -10 -36 3 -5 1 -11 -5 -15 -6 -4 -8 -10 -5 -15 3 -5 1 -27
-5 -48 -10 -39 -11 -39 -53 -37 -40 3 -97 -19 -97 -37 0 -4 -7 -8 -15 -8 -8 0
-24 -5 -35 -12 -15 -10 -23 -9 -39 6 -12 11 -21 26 -21 34 0 8 -6 12 -15 9 -8
-4 -17 -2 -20 4 -4 5 -10 7 -14 4 -5 -2 -6 35 -3 84 4 83 3 89 -19 110 -13 12
-25 17 -27 11 -6 -18 -22 -11 -22 10 0 13 -5 18 -15 14 -22 -9 -19 9 15 81 17
35 30 71 30 79 0 8 4 17 8 20 5 3 8 29 7 58 -1 29 2 58 6 63 3 6 9 24 12 40 3
17 11 48 17 70 6 22 13 54 15 70 2 17 10 50 19 74 19 52 21 98 4 103 -7 3 15
43 55 101 37 54 67 100 67 102 0 5 62 97 70 105 3 3 24 28 45 55 22 28 43 52
48 53 4 2 7 9 7 17 0 7 7 18 15 25 9 7 14 19 11 26 -2 6 7 22 21 35 14 13 36
40 49 61 13 20 39 52 59 71 19 19 35 39 35 46 0 6 6 11 14 11 18 0 40 26 27
34 -5 3 -11 1 -13 -6 -3 -8 -6 -9 -11 -1 -9 15 111 136 129 129 9 -3 14 1 14
14 0 23 16 35 23 18 3 -8 6 -6 6 5 1 9 9 17 19 17 10 0 30 14 45 31 15 17 27
28 27 23 0 -4 17 10 38 32 20 21 38 37 40 36 7 -7 63 31 82 55 34 43 5 39 -40
-6 -37 -37 -60 -50 -60 -36 0 3 16 27 36 55 19 27 33 54 29 60 -8 13 -25 13
-25 0 0 -14 -61 -73 -68 -66 -3 3 2 14 11 24 10 10 17 23 17 28 0 14 43 49 57
46 6 -1 14 2 18 7 3 6 12 8 21 4 8 -3 14 -1 12 3 -4 13 40 57 87 87 22 14 60
43 85 66 25 22 51 41 59 41 15 0 83 48 89 62 2 4 9 8 15 8 7 0 26 7 42 16 17
9 71 37 120 63 82 41 124 73 125 94 0 12 -35 8 -48 -5 -10 -10 -15 -10 -21 1
-7 11 -14 10 -38 -7 -19 -14 -34 -18 -43 -12 -9 6 -25 2 -46 -11 -17 -10 -38
-19 -45 -19 -12 0 -12 2 0 9 7 5 9 11 4 14 -11 7 -28 -4 -35 -23 -3 -8 -23
-24 -44 -36 -97 -52 -121 -68 -155 -100 -26 -25 -41 -33 -54 -28 -15 6 -17 4
-12 -10 11 -27 -3 -40 -20 -19 -13 17 -14 16 -8 -12 4 -20 3 -25 -4 -16 -10
15 -20 3 -63 -80 -19 -37 -26 -43 -36 -33 -16 18 -15 27 3 20 11 -4 15 1 15
19 0 13 5 27 10 30 6 3 10 11 10 16 0 5 -13 -5 -29 -23 -87 -98 -129 -147
-151 -174 -14 -16 -33 -33 -43 -37 -9 -3 -22 -19 -27 -34 -6 -16 -14 -35 -20
-43 -5 -8 -19 -36 -31 -61 -12 -25 -30 -51 -42 -58 -17 -11 -15 -4 12 40 17
30 47 87 66 126 19 40 52 92 72 115 21 24 60 69 86 100 26 31 69 72 95 91 26
19 70 58 99 86 29 28 56 51 61 51 8 0 84 74 226 220 32 33 61 58 64 56 2 -3
-19 -34 -47 -69 -56 -72 -64 -89 -25 -58 14 11 46 29 72 41 26 12 74 35 106
51 33 16 61 27 64 25 2 -3 -6 -19 -18 -35 -12 -17 -20 -40 -18 -50 3 -18 5
-18 73 0 39 10 84 18 100 18 67 0 104 13 138 50 19 20 50 51 71 69 20 18 36
38 36 44 0 37 98 116 136 110 7 -1 11 5 10 14 0 9 9 23 22 31 20 14 22 14 22
0 0 -8 7 -18 16 -21 18 -7 74 19 74 35 0 6 5 7 10 4 6 -4 27 6 48 22 20 16 57
42 82 58 l45 28 -40 12 c-38 11 -42 10 -72 -18 -31 -29 -32 -29 -26 -6 3 13
10 29 15 36 19 24 -468 123 -772 157 -302 35 -657 44 -947 25z m1369 -433 c5
3 4 -3 -3 -14 -15 -24 -39 -33 -91 -37 -38 -3 -58 8 -38 20 5 3 10 0 10 -7 1
-8 7 -5 18 8 10 11 23 19 29 17 6 -2 17 5 23 17 10 18 13 19 26 5 9 -8 20 -12
26 -9z m-152 -46 c0 -5 -2 -10 -4 -10 -3 0 -8 5 -11 10 -3 6 -1 10 4 10 6 0
11 -4 11 -10z m-350 -70 c0 -5 -5 -10 -11 -10 -5 0 -7 5 -4 10 3 6 8 10 11 10
2 0 4 -4 4 -10z m197 -6 c-3 -3 -12 -4 -19 -1 -8 3 -5 6 6 6 11 1 17 -2 13 -5z
m-417 -134 c0 -5 -5 -10 -11 -10 -5 0 -7 5 -4 10 3 6 8 10 11 10 2 0 4 -4 4
-10z m715 -1372 c-4 -13 -13 -33 -21 -45 -8 -12 -14 -31 -14 -41 0 -24 -68
-98 -102 -111 -24 -9 -28 -8 -28 8 0 34 45 115 90 163 49 52 86 65 75 26z
m-33 -160 c-7 -7 -12 -8 -12 -2 0 14 12 26 19 19 2 -3 -1 -11 -7 -17z m-332
-98 c0 -5 -5 -10 -11 -10 -5 0 -7 5 -4 10 3 6 8 10 11 10 2 0 4 -4 4 -10z m80
-41 c-7 -11 -14 -18 -17 -15 -3 3 0 12 7 21 18 21 23 19 10 -6z m123 15 c3 -4
1 -16 -5 -28 -7 -11 -14 -32 -16 -45 -4 -31 -31 -69 -82 -114 -57 -53 -73 -50
-55 9 16 54 55 113 102 154 34 31 45 35 56 24z m-285 -136 c-2 -6 -10 -14 -16
-16 -7 -2 -10 2 -6 12 7 18 28 22 22 4z m-878 -432 c0 -3 -4 -8 -10 -11 -5 -3
-10 -1 -10 4 0 6 5 11 10 11 6 0 10 -2 10 -4z m-80 -118 c0 -16 -3 -19 -11
-11 -6 6 -8 16 -5 22 11 17 16 13 16 -11z m-288 -490 c-6 -6 -14 -9 -17 -6 -3
3 -3 13 1 22 5 12 10 14 17 7 8 -8 8 -14 -1 -23z m461 -248 c-5 -19 -23 -29
-23 -12 0 7 20 32 26 32 1 0 0 -9 -3 -20z m-788 -430 c-3 -5 -11 -10 -16 -10
-6 0 -7 5 -4 10 3 6 11 10 16 10 6 0 7 -4 4 -10z m-45 -50 c0 -5 -5 -10 -11
-10 -5 0 -7 5 -4 10 3 6 8 10 11 10 2 0 4 -4 4 -10z m198 -72 c7 -7 12 -9 12
-5 0 4 9 3 20 -3 27 -14 25 -43 -5 -76 -14 -15 -25 -35 -25 -45 0 -11 -4 -19
-9 -19 -5 0 -29 -19 -54 -42 -50 -48 -54 -62 -64 -210 -5 -86 -4 -88 26 -130
31 -41 40 -65 21 -53 -5 3 -17 -6 -26 -20 -22 -33 -94 -33 -94 0 0 7 -16 44
-35 82 l-35 69 11 85 c7 52 22 108 40 146 16 34 29 66 29 70 0 10 48 80 80
117 38 43 84 58 108 34z m-290 -75 c-2 -15 -8 -28 -15 -30 -14 -5 -29 79 -18
98 11 17 37 -36 33 -68z m-8 -89 c0 -8 -4 -14 -10 -14 -5 0 -10 9 -10 21 0 11
5 17 10 14 6 -3 10 -13 10 -21z m343 -432 c3 -4 8 -38 12 -77 6 -60 5 -68 -8
-57 -12 10 -15 8 -19 -12 -3 -14 0 -30 6 -37 8 -9 7 -10 -7 -6 -11 4 -16 3
-12 -3 3 -6 12 -10 19 -10 22 0 39 -45 31 -81 -14 -62 -32 -86 -80 -102 -51
-18 -79 -9 -134 42 -43 40 -41 60 12 109 9 9 17 20 17 24 0 13 -38 9 -43 -4
-2 -7 -8 -10 -12 -5 -9 7 27 47 42 47 5 0 14 12 20 28 7 15 17 34 22 42 6 8
13 32 16 52 3 21 17 51 31 68 l26 30 29 -20 c15 -12 30 -24 32 -28z m-53
-2802 c18 -10 17 -50 -1 -50 -5 0 -9 -9 -9 -20 0 -25 -16 -26 -30 -1 -20 38
-12 73 18 80 2 1 12 -3 22 -9z m10 -154 c0 -24 21 -31 95 -31 65 0 70 -2 84
-27 9 -15 12 -30 7 -35 -5 -4 -11 -2 -13 5 -3 6 -9 10 -13 7 -10 -6 -32 29
-24 38 3 3 -3 3 -15 0 -12 -3 -21 -11 -21 -17 0 -6 -22 -26 -50 -44 -27 -18
-50 -37 -50 -41 0 -10 -59 -20 -77 -14 -15 6 -17 43 -3 43 6 0 10 6 10 13 0
24 45 117 58 117 6 0 12 -6 12 -14z m-390 -66 c-8 -5 -19 -10 -25 -10 -5 0 -3
5 5 10 8 5 20 10 25 10 6 0 3 -5 -5 -10z m564 -101 c10 16 33 14 40 -4 4 -12
-3 -15 -29 -15 -27 0 -35 4 -35 18 0 13 2 14 9 3 6 -9 11 -10 15 -2z m1546 7
c0 -3 -4 -8 -10 -11 -5 -3 -10 -1 -10 4 0 6 5 11 10 11 6 0 10 -2 10 -4z
m-2840 -30 c0 -2 -8 -10 -17 -17 -16 -13 -17 -12 -4 4 13 16 21 21 21 13z m35
-56 c-3 -5 -13 -10 -21 -10 -8 0 -14 -4 -14 -9 0 -5 -7 -11 -15 -15 -21 -8
-19 0 7 24 22 20 54 28 43 10z m-135 -63 c0 -7 -9 -18 -20 -25 -16 -10 -20
-10 -20 1 0 14 20 37 32 37 4 0 8 -6 8 -13z m140 -9 c0 -16 -67 -61 -82 -56
-6 2 9 18 32 36 50 36 50 36 50 20z m76 -23 c4 -15 1 -32 -7 -42 -11 -13 -11
-17 -1 -20 23 -8 12 -38 -23 -60 -44 -29 -57 -11 -19 28 15 16 23 29 17 29 -6
0 -16 -7 -23 -15 -7 -8 -17 -15 -23 -15 -6 0 -21 -10 -34 -22 -13 -12 -26 -18
-30 -14 -4 4 7 18 25 32 18 14 32 33 32 42 0 16 57 82 72 82 4 0 10 -11 14
-25z m389 -103 c17 -2 35 -8 41 -13 28 -23 125 -68 157 -74 20 -4 43 -16 53
-26 9 -10 24 -19 32 -19 8 0 28 -11 46 -25 83 -67 109 -83 147 -88 20 -2 41
-7 47 -11 5 -3 20 3 32 14 13 11 26 20 30 20 4 0 12 11 18 25 l11 24 48 -21
c38 -17 53 -19 75 -10 25 9 32 7 54 -15 14 -14 24 -27 22 -28 -2 -2 -37 -15
-79 -29 -76 -26 -254 -42 -265 -25 -2 4 -25 11 -49 15 -25 3 -45 10 -45 14 0
4 -17 14 -37 23 -38 16 -54 26 -106 60 -15 10 -31 16 -36 13 -4 -3 -18 6 -31
19 -13 13 -27 22 -32 19 -5 -3 -17 0 -26 8 -9 8 -52 34 -94 58 -64 36 -78 48
-78 68 0 19 4 23 18 17 9 -4 31 -10 47 -13z m3232 -14 c14 -18 -4 -77 -25 -85
-9 -4 -22 -13 -28 -21 -7 -9 -18 -12 -32 -8 -28 9 -30 36 -2 29 22 -6 26 7 8
25 -9 9 -5 18 18 41 32 33 47 37 61 19z m-2380 -170 c-3 -8 -6 -5 -6 6 -1 11
2 17 5 13 3 -3 4 -12 1 -19z m2280 -20 c-3 -7 -5 -2 -5 12 0 14 2 19 5 13 2
-7 2 -19 0 -25z m-3547 9 c0 -8 -10 -19 -22 -25 -13 -7 -33 -19 -45 -28 -15
-10 -23 -12 -23 -5 0 6 10 15 23 20 12 5 31 18 41 30 22 25 26 26 26 8z m1250
-7 c0 -5 -5 -10 -11 -10 -5 0 -7 5 -4 10 3 6 8 10 11 10 2 0 4 -4 4 -10z
m-1133 -133 c1 -26 -3 -50 -9 -53 -6 -4 -8 1 -3 15 6 21 -8 30 -20 11 -8 -13
-42 -13 -51 1 -7 13 55 81 71 76 5 -2 11 -25 12 -50z m-83 18 c-7 -16 -24 -21
-24 -6 0 8 7 13 27 20 1 1 0 -6 -3 -14z m465 -34 c19 -12 7 -41 -38 -90 -34
-36 -43 -41 -83 -41 -60 0 -81 22 -38 40 16 7 35 18 41 26 6 8 20 14 29 14 10
0 29 13 42 29 26 33 27 34 47 22z m-214 -50 c10 -17 -12 -21 -25 -6 -10 12
-10 15 3 15 9 0 18 -4 22 -9z m-131 -35 c-4 -11 -7 -21 -8 -21 0 -1 -14 -6
-29 -13 -56 -24 -62 -11 -16 36 34 34 64 34 53 -2z m-84 -1 c0 -8 -4 -15 -10
-15 -5 0 -7 7 -4 15 4 8 8 15 10 15 2 0 4 -7 4 -15z m3534 -127 c-3 -4 -11 -5
-20 -1 -11 4 -12 8 -3 20 10 11 14 11 20 1 4 -6 6 -15 3 -20z m-2758 -53 c-8
-32 -68 -70 -123 -79 -39 -6 -43 -4 -43 14 0 15 7 20 25 20 14 0 25 5 25 10 0
6 7 10 16 10 9 0 34 16 57 35 42 37 54 34 43 -10z m2216 3 c-15 -15 -26 -4
-18 18 5 13 9 15 18 6 9 -9 9 -15 0 -24z m532 7 c3 -8 1 -15 -4 -15 -6 0 -10
7 -10 15 0 8 2 15 4 15 2 0 6 -7 10 -15z m-560 -20 c3 -9 0 -15 -9 -15 -9 0
-12 6 -9 15 4 8 7 15 9 15 2 0 5 -7 9 -15z m-2384 -61 c0 -8 -5 -12 -10 -9 -6
4 -8 11 -5 16 9 14 15 11 15 -7z m-580 -62 c0 -10 -22 -32 -32 -32 -13 0 -9
28 5 33 19 8 27 8 27 -1z m3257 -86 c-13 -14 -27 -23 -31 -19 -3 4 6 20 21 35
15 16 29 25 31 20 2 -6 -8 -22 -21 -36z m11 -65 c-32 -26 -38 -16 -7 13 13 13
26 19 27 14 2 -4 -7 -17 -20 -27z m-1 -79 c-15 -14 -27 -21 -27 -15 0 15 41
55 49 48 3 -3 -7 -18 -22 -33z m-11 -80 c-14 -15 -26 -22 -26 -16 0 16 44 62
49 51 2 -5 -8 -21 -23 -35z m14 -43 c0 -6 -11 -24 -25 -41 -21 -24 -26 -27
-31 -13 -4 9 3 25 17 39 27 27 39 31 39 15z m280 -29 c0 -5 -5 -10 -11 -10 -5
0 -7 5 -4 10 3 6 8 10 11 10 2 0 4 -4 4 -10z m-50 -70 c0 -5 -2 -10 -4 -10 -3
0 -8 5 -11 10 -3 6 -1 10 4 10 6 0 11 -4 11 -10z m-2475 -91 c4 -32 3 -33 -11
-15 -15 21 -18 39 -7 49 10 10 13 3 18 -34z m-18 -91 c-3 -8 -6 -5 -6 6 -1 11
2 17 5 13 3 -3 4 -12 1 -19z m1563 -348 c0 -5 -2 -10 -4 -10 -3 0 -8 5 -11 10
-3 6 -1 10 4 10 6 0 11 -4 11 -10z m-945 -329 c-18 -29 -54 1 -41 35 5 13 9
12 27 -5 12 -11 18 -24 14 -30z m221 -28 c7 -10 14 -26 14 -35 0 -9 6 -21 14
-25 18 -10 33 -63 18 -63 -14 0 -52 49 -52 66 0 8 -9 22 -20 31 -11 10 -20 23
-20 30 0 19 31 16 46 -4z m-156 -37 c6 -19 19 -36 30 -39 14 -3 20 -14 20 -31
0 -14 5 -26 10 -26 19 0 10 -27 -12 -37 -35 -15 -69 3 -62 34 4 16 2 23 -9 23
-19 0 -32 77 -16 96 18 22 26 17 39 -20z"/>
<path d="M6923 10553 c-35 -24 -27 -33 11 -15 19 9 33 19 30 24 -7 11 -15 9
-41 -9z"/>
<path d="M6431 10245 c-29 -29 -51 -59 -49 -66 5 -15 118 91 118 110 0 19 -14
10 -69 -44z"/>
<path d="M7733 10082 c-3 -12 -16 -25 -30 -29 l-24 -8 45 -50 c45 -48 54 -64
39 -66 -45 -4 -83 -3 -83 4 0 4 -13 7 -29 7 -32 0 -56 -18 -66 -51 -7 -20 -12
-21 -61 -15 -29 3 -64 11 -78 17 -20 10 -30 9 -50 -5 -31 -20 -36 -20 -36 0 0
14 -8 16 -50 10 -28 -4 -63 -12 -77 -19 -20 -9 -27 -9 -30 0 -3 8 -14 8 -39 1
-19 -5 -43 -7 -53 -3 -25 8 -108 -31 -122 -58 -7 -12 -43 -55 -80 -95 -38 -39
-69 -77 -69 -82 0 -22 -18 -8 -26 21 -9 30 -10 31 -24 14 -9 -11 -10 -16 -2
-11 14 8 16 -3 3 -23 -5 -8 -14 -10 -21 -6 -8 5 -11 4 -7 -3 4 -5 -14 -32 -39
-59 -51 -54 -104 -126 -104 -142 0 -6 -3 -11 -8 -11 -4 0 -8 -18 -8 -41 l-1
-41 58 62 c33 33 59 56 59 51 0 -15 27 -14 33 2 2 6 7 9 11 5 11 -10 -16 -46
-39 -52 -23 -6 -115 -94 -115 -110 0 -5 -7 -14 -17 -21 -25 -18 0 -26 31 -9
16 7 36 14 46 14 10 0 37 18 59 40 42 42 50 45 29 10 -27 -43 21 -32 75 18 37
35 36 56 -3 49 -23 -5 -30 -3 -30 10 0 22 49 66 66 59 9 -3 14 2 14 14 0 22
20 26 38 8 8 -8 15 -8 25 0 8 7 17 9 20 5 4 -3 24 6 44 20 26 17 49 25 70 23
48 -4 142 12 167 29 11 8 30 15 41 15 12 0 26 5 32 11 8 8 13 8 17 0 9 -13 48
-14 61 -2 6 5 38 13 73 17 53 6 62 4 62 -9 0 -25 29 -36 68 -25 26 7 37 6 42
-3 6 -8 24 -10 63 -5 31 3 67 2 82 -4 44 -17 76 -19 95 -8 15 10 25 7 53 -15
20 -15 43 -27 51 -27 9 0 16 -4 16 -9 0 -5 18 -11 40 -15 23 -3 49 -12 60 -18
14 -9 25 -9 46 0 25 12 29 10 60 -24 19 -20 34 -42 34 -48 0 -7 3 -7 8 -1 4 6
22 18 40 27 32 17 32 17 32 -7 0 -13 -4 -27 -10 -30 -12 -7 -14 -26 -2 -24 20
3 30 -3 35 -21 3 -11 12 -20 21 -20 9 0 16 -6 16 -14 0 -8 4 -17 8 -20 11 -7
61 -17 90 -19 12 -1 26 -8 31 -15 4 -7 15 -10 24 -6 12 4 17 1 17 -11 0 -15 2
-15 15 -1 23 22 34 59 30 99 -2 22 2 40 11 48 11 9 14 7 14 -9 0 -12 9 -26 20
-32 11 -6 20 -21 20 -35 0 -26 37 -95 51 -95 5 0 9 -7 9 -16 0 -8 5 -12 11 -9
5 4 24 9 40 12 26 4 31 0 44 -31 9 -20 21 -36 29 -36 7 0 25 -9 39 -20 14 -11
32 -20 40 -20 8 0 20 -6 26 -14 6 -7 30 -17 53 -20 41 -7 105 -39 120 -60 4
-6 8 -7 8 -3 0 10 81 -47 119 -83 40 -38 115 -130 141 -173 17 -29 20 -41 11
-50 -16 -16 -14 -74 4 -81 8 -3 14 -2 14 2 -7 48 16 49 26 2 4 -20 13 -30 25
-30 13 0 20 -10 25 -39 4 -22 13 -45 21 -52 8 -6 14 -28 14 -49 0 -23 9 -51
25 -74 14 -20 25 -43 25 -50 0 -7 3 -16 7 -20 9 -8 33 -77 33 -94 0 -8 6 -28
14 -45 14 -32 24 -77 29 -132 1 -18 7 -29 15 -27 9 1 12 -18 12 -71 0 -43 5
-78 12 -85 9 -9 8 -12 -6 -12 -12 0 -16 -5 -12 -16 3 -9 6 -22 6 -29 0 -7 8
-12 18 -11 14 1 17 -8 17 -52 l-1 -53 17 34 c30 57 41 217 29 400 -10 161 -17
219 -46 392 -31 191 -21 168 -149 326 -178 219 -399 445 -649 664 -68 59 -70
60 -130 61 -44 1 -62 5 -64 15 -1 8 -18 25 -37 38 -19 13 -32 27 -30 32 3 4
-9 16 -27 26 -24 12 -28 18 -16 21 25 5 31 32 7 32 -10 0 -24 10 -30 23 -17
35 -87 80 -115 73 -20 -5 -24 -3 -24 18 0 20 -23 39 -137 112 -76 49 -145 88
-153 87 -8 -1 -34 -5 -57 -9 -35 -5 -44 -4 -49 10 -4 9 -19 23 -35 32 -28 14
-29 14 -29 -10 0 -30 -25 -54 -34 -31 -7 19 -20 19 -41 -1 -21 -21 -45 -11
-45 19 0 35 -28 54 -88 62 -48 6 -54 5 -59 -13z m105 -190 c2 -7 -6 -12 -17
-12 -21 0 -27 11 -14 24 9 9 26 2 31 -12z m42 -27 c-16 -19 -30 -19 -30 0 0
17 33 38 38 24 2 -5 -2 -16 -8 -24z m540 -145 c-6 -11 -15 -20 -21 -20 -6 0
-6 7 1 20 6 11 15 20 21 20 6 0 6 -7 -1 -20z m117 -152 c-3 -8 -6 -5 -6 6 -1
11 2 17 5 13 3 -3 4 -12 1 -19z m-1677 -38 c0 -5 -5 -10 -11 -10 -5 0 -7 5 -4
10 3 6 8 10 11 10 2 0 4 -4 4 -10z m1733 -73 l-6 -37 -23 22 -23 23 27 17 c14
9 27 16 29 15 1 -2 0 -20 -4 -40z m1114 -1659 c-3 -8 -6 -5 -6 6 -1 11 2 17 5
13 3 -3 4 -12 1 -19z m48 3 c3 -5 1 -12 -5 -16 -5 -3 -10 1 -10 9 0 18 6 21
15 7z"/>
<path d="M6818 9703 c6 -3 12 -12 12 -21 0 -15 2 -15 10 -2 14 22 12 26 -12
27 -13 0 -17 -1 -10 -4z"/>
<path d="M6955 9380 c-18 -19 -17 -20 6 -20 25 0 49 16 49 32 0 16 -37 8 -55
-12z"/>
<path d="M6287 8863 c-4 -3 -7 -12 -7 -19 0 -7 -13 -33 -30 -57 -30 -44 -37
-67 -22 -67 30 1 82 75 82 117 0 31 -9 41 -23 26z"/>
<path d="M6836 8838 c-9 -12 -16 -28 -16 -35 0 -7 -14 -29 -32 -49 -32 -36
-33 -41 -37 -141 -1 -40 -79 -127 -154 -174 -100 -62 -127 -82 -122 -90 6 -9
69 15 157 61 64 33 83 47 147 108 36 34 51 42 82 42 35 0 40 4 60 43 12 23 46
65 76 93 l55 51 -44 7 -43 8 -68 -74 c-54 -58 -70 -70 -77 -58 -19 30 -11 70
23 103 60 61 60 63 46 97 -16 36 -32 38 -53 8z"/>
<path d="M5689 8812 c-66 -67 -98 -129 -47 -89 22 16 98 109 98 119 0 16 -16
6 -51 -30z"/>
<path d="M9156 8821 c-7 -10 32 -47 40 -38 7 7 -14 47 -26 47 -5 0 -11 -4 -14
-9z"/>
<path d="M7381 8705 c-30 -31 -51 -59 -47 -63 4 -4 13 0 19 9 7 9 22 21 35 28
12 6 22 17 22 23 0 7 10 22 22 35 12 13 17 23 12 23 -5 0 -33 -25 -63 -55z"/>
<path d="M5807 8707 c-4 -10 -7 -27 -7 -37 0 -10 -5 -20 -11 -22 -6 -2 -9 -15
-7 -28 4 -23 5 -24 12 -5 4 11 12 29 18 41 5 12 8 32 6 45 -3 21 -4 22 -11 6z"/>
<path d="M7213 8705 c-12 -9 -32 -13 -45 -10 -30 7 -43 -3 -61 -46 -9 -23 -31
-46 -61 -65 -45 -28 -59 -62 -23 -56 10 2 17 -4 17 -13 0 -8 -8 -16 -17 -16
-23 -2 -64 -6 -83 -8 -13 -1 -13 -3 0 -10 8 -6 17 -8 20 -6 4 2 21 -9 38 -25
48 -43 101 -21 102 43 0 15 4 27 9 27 4 0 23 23 42 52 19 28 42 63 51 77 9 14
22 32 28 39 19 21 7 33 -17 17z m-33 -35 c0 -5 -5 -10 -11 -10 -5 0 -7 5 -4
10 3 6 8 10 11 10 2 0 4 -4 4 -10z"/>
<path d="M7266 8587 c-48 -54 -57 -77 -30 -77 8 0 22 -7 30 -15 20 -20 29 -19
40 5 5 10 33 44 62 74 32 33 48 57 42 61 -6 4 -19 0 -29 -9 -10 -9 -22 -16
-28 -16 -5 0 -16 -12 -23 -27 -10 -22 -14 -24 -17 -11 -2 9 1 26 6 37 22 41
-8 29 -53 -22z"/>
<path d="M6015 8560 c-3 -5 1 -10 9 -10 9 0 16 5 16 10 0 6 -4 10 -9 10 -6 0
-13 -4 -16 -10z"/>
<path d="M4677 8503 c-4 -3 -7 -13 -7 -22 1 -13 3 -13 11 2 11 19 8 33 -4 20z"/>
<path d="M6847 8444 c-17 -18 -6 -35 21 -32 16 2 27 9 27 18 0 16 -36 26 -48
14z"/>
<path d="M5069 8062 c-14 -23 -28 -39 -32 -36 -9 9 -39 -24 -33 -35 4 -5 -5
-18 -19 -29 -14 -11 -25 -23 -25 -26 0 -13 41 -5 46 9 4 8 12 15 19 15 7 0 16
8 19 18 8 21 28 55 45 75 7 9 11 24 9 34 -3 13 -10 7 -29 -25z"/>
<path d="M10060 8081 c0 -11 5 -23 10 -26 6 -3 10 3 10 14 0 11 -4 23 -10 26
-5 3 -10 -3 -10 -14z"/>
<path d="M5841 8074 c0 -11 3 -14 6 -6 3 7 2 16 -1 19 -3 4 -6 -2 -5 -13z"/>
<path d="M5115 7980 c-3 -5 -1 -10 4 -10 6 0 11 5 11 10 0 6 -2 10 -4 10 -3 0
-8 -4 -11 -10z"/>
<path d="M10082 7866 c2 -15 8 -26 13 -26 15 0 12 43 -3 48 -10 3 -13 -4 -10
-22z"/>
<path d="M6153 7556 c5 -13 -38 -42 -56 -38 -9 2 -37 -23 -37 -32 0 -3 -22
-29 -49 -56 -28 -28 -53 -59 -56 -69 -3 -10 -23 -32 -45 -50 -23 -18 -40 -41
-40 -52 0 -32 26 -74 64 -103 20 -15 39 -38 42 -50 11 -45 194 -191 239 -192
17 0 37 -2 45 -5 11 -3 14 3 13 24 -1 15 1 28 5 28 4 1 30 2 59 4 39 1 50 -1
46 -12 -7 -17 7 -17 32 1 35 23 74 26 86 5 9 -18 11 -18 62 2 83 31 96 40 134
91 29 38 43 48 66 48 78 0 125 -72 79 -123 -19 -21 -13 -28 17 -20 12 3 27 16
32 29 4 13 15 24 24 24 19 0 19 -11 0 -36 -28 -37 -19 -44 59 -44 63 0 79 3
101 23 l27 23 -18 37 c-10 20 -21 37 -26 37 -4 0 -8 16 -8 35 0 22 5 34 12 32
8 -1 12 17 13 55 l1 57 -27 -29 c-28 -28 -28 -28 -132 -25 -82 3 -114 8 -146
24 -22 12 -45 21 -51 21 -6 0 -30 9 -52 20 -23 11 -74 27 -114 35 -40 8 -84
19 -99 25 -14 5 -41 10 -58 10 -18 0 -41 6 -52 14 -22 15 -26 16 -53 16 -10 0
-37 17 -60 37 -41 35 -53 65 -32 78 6 3 10 16 10 29 0 12 5 27 11 33 7 7 2 17
-19 32 -34 24 -57 27 -49 7z m887 -436 c0 -5 -5 -10 -11 -10 -5 0 -7 5 -4 10
3 6 8 10 11 10 2 0 4 -4 4 -10z"/>
<path d="M7060 7550 c0 -11 7 -20 15 -20 17 0 18 2 9 24 -9 23 -24 20 -24 -4z"/>
<path d="M7105 7551 c-3 -5 -1 -12 5 -16 5 -3 10 1 10 9 0 18 -6 21 -15 7z"/>
<path d="M9761 7430 c-14 -64 -14 -112 -1 -90 9 16 23 140 16 140 -3 0 -9 -23
-15 -50z"/>
<path d="M8546 7461 c-3 -4 -20 -11 -38 -15 -18 -4 -49 -20 -70 -36 -40 -33
-54 -37 -61 -17 -3 7 -7 5 -12 -8 -4 -11 -11 -29 -15 -40 -5 -11 -12 -35 -15
-52 -7 -33 -7 -33 35 -33 23 0 49 4 60 10 14 7 17 6 16 -8 -1 -12 8 -18 32
-20 29 -3 32 -6 27 -30 -3 -15 -2 -21 1 -14 5 10 9 9 21 -5 11 -14 16 -15 20
-5 4 10 10 10 30 -3 14 -9 33 -15 44 -12 18 5 57 -38 45 -50 -3 -4 -1 -12 4
-18 8 -9 5 -14 -10 -18 -11 -3 -20 -1 -20 4 0 18 -36 8 -63 -17 -25 -23 -35
-26 -75 -21 -36 4 -49 1 -59 -11 -9 -14 -16 -15 -31 -6 -22 14 -67 7 -83 -12
-9 -11 -15 -12 -26 -2 -17 13 -33 -3 -33 -34 0 -16 -15 -23 -45 -19 -6 0 -17
-14 -23 -33 -7 -19 -24 -45 -37 -58 -25 -23 -34 -58 -15 -58 6 0 10 -9 10 -21
0 -17 4 -19 23 -13 50 16 87 21 87 13 0 -6 -10 -23 -22 -39 -21 -29 -21 -30
-3 -50 16 -18 17 -23 5 -30 -8 -6 -20 -10 -27 -10 -6 0 -13 -4 -15 -8 -1 -4
-18 -18 -35 -31 -26 -18 -33 -29 -33 -57 0 -38 14 -44 30 -14 6 11 18 20 26
20 12 0 15 -6 10 -26 -6 -23 -4 -25 11 -19 50 21 95 27 118 17 21 -10 23 -16
18 -54 -6 -50 -18 -106 -27 -129 -5 -12 4 -20 37 -33 47 -18 89 -48 86 -62 -4
-24 3 -31 27 -26 20 4 26 0 31 -17 4 -16 13 -22 32 -21 58 4 64 2 59 -28 -4
-29 21 -86 36 -82 5 1 12 -4 17 -12 5 -7 22 -14 39 -15 53 -4 60 -6 60 -20 0
-10 11 -12 41 -8 23 3 44 7 48 10 17 10 72 18 173 24 63 4 113 12 120 19 9 9
9 12 -1 12 -9 0 -11 8 -8 21 5 19 -11 61 -43 109 -6 8 -14 27 -20 43 -7 20
-16 27 -35 27 -14 0 -25 6 -25 13 0 14 -35 47 -49 47 -5 0 -29 18 -52 40 -24
22 -47 40 -51 40 -4 0 -8 7 -8 15 0 9 -8 18 -17 22 -10 3 -68 30 -128 59 -61
30 -118 54 -128 54 -9 0 -22 9 -29 20 -7 11 -21 20 -31 20 -11 0 -28 11 -39
25 -11 14 -26 25 -34 25 -8 0 -14 10 -14 25 0 15 6 25 14 25 8 0 25 21 38 48
16 32 30 48 46 50 12 2 22 10 22 18 0 8 6 14 13 13 6 -1 19 1 27 4 77 32 218
38 281 13 45 -18 81 -14 72 10 -3 8 0 20 6 28 9 11 8 18 -4 30 -9 9 -22 16
-29 16 -8 0 -19 6 -25 14 -9 11 -8 15 5 20 13 5 14 9 4 21 -10 13 -8 20 14 40
28 26 44 24 102 -12 12 -8 28 -11 36 -8 17 7 69 -11 80 -28 6 -9 13 -6 24 8
14 18 16 18 27 4 7 -9 30 -20 52 -25 36 -9 40 -13 40 -42 0 -26 6 -36 30 -48
17 -9 44 -17 60 -18 27 -1 30 -5 33 -39 3 -32 8 -40 33 -49 23 -8 29 -16 29
-39 0 -28 14 -47 63 -86 8 -6 24 -9 36 -6 25 6 25 10 6 -95 -8 -45 -12 -89 -9
-96 3 -8 -6 -25 -19 -37 -30 -29 -46 -99 -22 -99 8 0 15 4 15 10 0 5 21 31 48
57 57 58 128 199 179 357 19 61 39 120 44 131 11 24 13 77 9 203 -2 75 -5 92
-17 88 -9 -4 -16 4 -20 24 -8 41 -19 29 -26 -27 -3 -26 -10 -49 -16 -51 -6 -2
-13 -19 -17 -38 -3 -19 -10 -34 -15 -34 -5 0 -9 -7 -9 -15 0 -8 -6 -15 -13
-15 -7 0 -13 -12 -12 -27 0 -29 -18 -35 -57 -18 -13 5 -18 3 -18 -9 0 -9 5
-16 12 -16 8 0 6 -6 -4 -16 -19 -19 -50 -12 -42 10 7 18 -14 59 -27 51 -5 -4
-12 2 -16 11 -4 10 -2 19 5 22 7 2 12 8 12 13 0 4 -6 6 -13 3 -7 -2 -20 9 -30
26 -10 16 -15 30 -11 30 3 0 1 7 -6 15 -7 8 -10 24 -7 35 4 15 -2 25 -21 38
-15 9 -29 19 -32 23 -3 3 -19 14 -37 23 -18 9 -44 28 -58 42 -19 19 -32 24
-50 20 -13 -3 -26 -2 -29 3 -3 4 -25 11 -48 15 -38 6 -63 16 -153 57 -77 36
-223 53 -266 32 -16 -8 -31 -18 -34 -24 -10 -16 -25 -10 -18 7 5 14 1 15 -27
9 -23 -5 -35 -3 -42 6 -7 11 -11 11 -15 2 -7 -19 -20 -16 -26 6 -5 22 -43 45
-51 32z m4 -210 c0 -12 -20 -25 -27 -18 -7 7 6 27 18 27 5 0 9 -4 9 -9z m1028
-474 c2 -35 -1 -57 -8 -57 -5 0 -10 13 -10 29 0 16 -3 43 -7 61 -5 25 -3 32 8
28 9 -3 15 -24 17 -61z m-958 -287 c0 -5 -4 -10 -10 -10 -5 0 -10 5 -10 10 0
6 5 10 10 10 6 0 10 -4 10 -10z m146 -215 c-3 -9 0 -15 9 -15 17 0 17 -2 9
-24 -3 -9 -30 -20 -62 -27 -32 -7 -62 -16 -68 -21 -7 -5 -16 -3 -23 5 -15 19
3 39 64 71 57 30 80 33 71 11z"/>
<path d="M7228 7450 c-3 -11 -19 -14 -56 -12 -41 2 -52 -1 -52 -14 0 -8 -4
-13 -9 -10 -15 10 -19 -97 -4 -110 7 -6 12 -20 11 -30 -2 -11 1 -47 5 -82 7
-52 12 -64 30 -71 12 -5 29 -22 37 -37 8 -16 19 -32 25 -36 18 -14 95 -8 120
8 22 15 25 15 31 1 3 -9 3 -21 -1 -27 -11 -17 14 -11 31 8 20 24 70 18 77 -9
6 -23 47 -26 47 -4 0 8 9 24 20 35 27 27 21 103 -9 132 -12 10 -21 29 -21 41
0 34 -35 92 -56 93 -11 1 -27 2 -36 3 -10 1 -18 6 -18 11 0 6 -15 27 -34 46
-23 24 -44 35 -67 37 -19 1 -41 10 -50 21 -13 15 -17 17 -21 6z"/>
<path d="M8390 7439 c0 -5 5 -7 10 -4 6 3 10 8 10 11 0 2 -4 4 -10 4 -5 0 -10
-5 -10 -11z"/>
<path d="M9780 7285 c0 -27 5 -57 10 -65 7 -11 10 -1 10 35 0 28 -5 57 -10 65
-7 11 -10 1 -10 -35z"/>
<path d="M8624 7149 c-3 -6 -1 -16 5 -22 8 -8 11 -5 11 11 0 24 -5 28 -16 11z"/>
<path d="M6333 6911 c-10 -16 -9 -20 8 -24 25 -7 35 11 17 29 -11 12 -15 11
-25 -5z"/>
<path d="M10574 6817 c-12 -18 -34 -58 -50 -91 -16 -32 -34 -60 -40 -63 -6 -2
-26 -37 -43 -76 -18 -40 -40 -87 -49 -106 l-17 -34 -5 29 c-6 33 -26 30 -22
-3 1 -13 -2 -23 -8 -23 -5 0 -10 10 -10 23 0 20 -4 18 -35 -18 -20 -22 -42
-52 -50 -67 -22 -39 -89 -128 -93 -123 -3 2 1 18 7 36 6 18 9 34 6 37 -2 3 -7
-4 -10 -14 -4 -10 -11 -26 -16 -34 -5 -8 -14 -26 -19 -39 -6 -13 -17 -29 -25
-35 -7 -6 -21 -37 -30 -69 -9 -32 -23 -61 -30 -63 -7 -3 -16 -17 -20 -32 -3
-14 -19 -42 -34 -61 -16 -20 -47 -63 -70 -95 -42 -61 -48 -65 -31 -22 17 46
-23 37 -49 -11 -6 -13 -18 -23 -25 -23 -16 0 -71 -67 -81 -100 -4 -13 -19 -39
-33 -57 -20 -24 -29 -29 -39 -21 -9 8 -15 4 -22 -15 -15 -40 -35 -46 -29 -8 4
25 1 31 -14 31 -14 0 -27 -19 -49 -66 -16 -37 -32 -77 -35 -91 -4 -15 -12 -22
-21 -19 -8 3 -17 -2 -20 -12 -4 -9 -10 -19 -14 -22 -4 -3 -26 -45 -48 -95 -23
-49 -45 -92 -49 -95 -5 -3 -21 -43 -36 -90 -34 -103 -31 -98 -126 -242 -48
-71 -88 -146 -103 -190 -47 -137 -115 -290 -140 -317 -32 -33 -55 -103 -67
-199 -18 -137 -67 -187 -183 -187 l-59 0 -58 -107 c-32 -59 -74 -123 -94 -141
-21 -20 -39 -48 -43 -67 -7 -39 -52 -122 -54 -100 0 9 -4 5 -9 -7 -5 -13 -14
-23 -20 -23 -5 0 -10 -9 -10 -20 0 -14 -5 -18 -17 -13 -13 5 -15 2 -11 -14 4
-15 -2 -25 -23 -37 -15 -9 -31 -26 -34 -37 -5 -14 -12 -18 -26 -14 -14 5 -21
0 -28 -18 -5 -14 -14 -26 -19 -28 -5 -2 -48 -51 -95 -108 -93 -112 -101 -134
-72 -190 24 -47 85 -242 85 -272 0 -10 17 -51 39 -91 21 -40 42 -84 46 -98 9
-28 49 -89 92 -137 31 -35 105 -65 140 -57 13 4 23 2 23 -4 0 -5 11 -7 24 -5
25 5 75 -16 95 -41 8 -9 22 -16 32 -16 10 0 22 -6 26 -13 12 -20 126 -79 132
-69 8 12 74 13 81 1 4 -6 18 -5 38 2 26 9 37 8 57 -5 13 -9 41 -16 62 -16 21
0 70 -12 108 -26 39 -14 77 -27 85 -29 19 -3 40 -11 113 -41 32 -13 66 -24 75
-24 9 0 25 -7 35 -14 9 -7 28 -11 42 -8 18 3 25 0 25 -12 0 -10 9 -16 25 -16
15 0 38 -6 54 -14 15 -8 45 -16 66 -18 37 -3 41 -1 97 72 89 113 276 397 369
559 676 1184 881 2624 558 3930 -22 91 -44 171 -47 178 -5 8 -14 1 -28 -20z"/>
<path d="M9060 6776 c0 -28 12 -46 31 -46 24 0 25 -16 2 -30 -16 -10 -16 -10
2 -8 29 5 30 41 2 72 -27 29 -37 32 -37 12z"/>
<path d="M9156 6595 c4 -8 10 -15 15 -15 4 0 6 7 3 15 -4 8 -10 15 -15 15 -4
0 -6 -7 -3 -15z"/>
<path d="M9200 6545 c0 -11 -5 -15 -14 -12 -19 7 -29 -22 -20 -57 7 -28 34
-36 34 -10 0 8 5 12 10 9 6 -3 10 3 10 14 0 10 -6 21 -12 24 -10 3 -10 7 0 19
9 11 10 18 2 23 -5 3 -10 -1 -10 -10z"/>
<path d="M9467 6404 c-4 -4 -7 -14 -7 -23 0 -11 3 -12 11 -4 6 6 10 16 7 23
-2 6 -7 8 -11 4z"/>
<path d="M8512 6163 c2 -10 10 -18 18 -18 22 0 18 29 -3 33 -14 3 -18 -1 -15
-15z"/>
<path d="M9522 6127 c-12 -13 -22 -29 -22 -35 0 -23 18 -12 39 23 23 40 15 46
-17 12z"/>
<path d="M9570 6086 c0 -9 -6 -16 -14 -16 -41 0 -95 -121 -92 -207 1 -47 12
-65 23 -37 3 10 18 34 32 53 23 30 23 34 8 43 -24 13 -22 59 3 65 11 3 20 11
20 18 0 8 12 23 26 34 26 20 29 51 7 59 -7 2 -13 -3 -13 -12z"/>
<path d="M7190 6040 c0 -11 -6 -20 -12 -21 -7 0 -4 -4 7 -8 19 -8 19 -8 -3
-20 -13 -7 -22 -21 -22 -35 0 -31 -8 -36 -39 -25 -21 8 -24 8 -13 -2 19 -20
14 -29 -17 -29 -18 0 -38 -10 -52 -25 -13 -13 -29 -25 -36 -25 -6 0 -13 -8
-15 -17 -3 -16 -5 -16 -18 -2 -8 9 -23 14 -34 11 -16 -4 -18 -1 -14 22 3 14 2
29 -2 31 -4 2 -5 16 -3 30 9 42 -5 94 -25 93 -9 0 -36 3 -58 7 -42 7 -42 7
-70 -40 -24 -42 -28 -58 -27 -124 0 -63 5 -84 28 -126 17 -31 29 -72 33 -107
4 -51 7 -58 26 -58 12 0 29 -9 39 -20 12 -14 29 -20 57 -20 22 0 40 -5 40 -11
0 -6 7 -3 16 5 23 24 72 20 106 -9 16 -14 36 -25 45 -25 9 0 13 -6 10 -15 -10
-23 11 -28 38 -8 25 18 33 43 15 43 -7 0 -7 6 -1 19 13 23 76 34 105 19 12 -7
49 -11 84 -10 57 3 62 1 62 -18 0 -24 19 -26 46 -4 13 11 15 17 7 20 -15 6
-18 44 -4 44 5 0 16 3 24 6 19 7 31 -24 16 -42 -15 -19 -2 -35 24 -29 27 7 52
-30 62 -90 13 -83 14 -85 41 -85 13 0 36 -7 49 -16 28 -18 91 -12 140 15 36
19 49 37 52 71 1 14 5 57 9 96 4 49 3 73 -5 78 -6 4 -11 16 -11 26 0 23 -38
90 -51 90 -6 0 -9 7 -7 16 4 21 -52 27 -59 7 -3 -7 -9 -11 -13 -8 -5 3 -21 -1
-37 -9 -52 -26 -97 -36 -107 -26 -15 15 -36 12 -36 -6 0 -9 -6 -14 -12 -11 -7
2 -13 9 -13 15 0 21 -13 23 -20 3 -5 -18 -8 -19 -21 -7 -8 8 -14 24 -14 35 0
11 -9 22 -20 26 -15 5 -20 15 -20 40 0 22 -8 41 -25 56 -14 14 -25 35 -25 51
0 26 -40 78 -60 78 -6 0 -10 7 -10 15 0 9 -12 20 -26 25 -14 6 -28 19 -31 30
-3 11 -10 21 -17 21 -6 1 -26 3 -43 5 -28 3 -33 0 -33 -16z m-140 -265 c0 -8
-7 -15 -15 -15 -8 0 -15 -5 -15 -12 0 -6 -3 -9 -6 -5 -3 3 -3 15 1 26 7 24 35
29 35 6z m-50 -5 c0 -5 -2 -10 -4 -10 -3 0 -8 5 -11 10 -3 6 -1 10 4 10 6 0
11 -4 11 -10z"/>
<path d="M5034 5546 c-19 -19 -34 -42 -34 -51 0 -21 20 -15 34 10 6 11 21 28
34 38 12 10 22 23 22 28 0 18 -23 8 -56 -25z"/>
<path d="M7406 5471 c-9 -14 4 -41 20 -41 8 0 14 10 14 25 0 25 -23 35 -34 16z"/>
<path d="M5790 5204 c0 -8 5 -12 10 -9 6 3 10 10 10 16 0 5 -4 9 -10 9 -5 0
-10 -7 -10 -16z"/>
<path d="M6250 5193 c-14 -3 -31 -10 -38 -16 -7 -5 -48 -11 -90 -13 -42 -1
-88 -7 -102 -11 -14 -5 -45 -8 -70 -7 -71 3 -147 -45 -118 -74 8 -8 7 -15 -3
-25 -8 -8 -23 -33 -34 -56 -16 -36 -17 -50 -8 -99 12 -63 25 -102 59 -177 38
-84 54 -127 54 -146 0 -11 5 -19 10 -19 6 0 10 -7 10 -15 0 -7 8 -18 17 -24
13 -7 14 -12 6 -23 -11 -13 -9 -125 2 -136 3 -3 11 1 20 8 9 7 18 10 22 7 9
-10 63 70 63 95 0 15 63 78 77 78 6 0 16 7 23 15 7 8 26 15 42 15 30 0 88 -33
88 -51 0 -5 -22 -31 -49 -58 -35 -35 -48 -55 -44 -69 3 -14 -5 -27 -30 -46
-18 -14 -38 -26 -44 -26 -15 0 -73 -31 -73 -38 1 -4 14 -22 30 -41 27 -31 32
-33 55 -23 14 6 25 18 25 27 0 8 5 15 11 15 6 0 8 8 5 18 -4 13 5 31 30 57 25
27 36 48 37 70 1 22 6 32 16 31 9 -1 20 9 26 22 5 12 15 22 22 22 7 0 13 4 13
8 0 4 14 16 30 26 35 20 76 15 110 -14 13 -11 26 -17 31 -14 5 2 19 -1 31 -9
13 -8 45 -15 73 -16 27 -1 54 -6 60 -11 5 -4 26 -9 45 -11 19 -2 40 -6 46 -11
5 -4 30 -10 54 -13 23 -3 58 -14 76 -26 19 -11 38 -18 43 -15 5 3 14 -1 21 -9
22 -27 77 -35 128 -19 70 21 102 19 102 -7 0 -16 5 -20 20 -16 17 4 18 2 9
-14 -7 -14 -6 -19 2 -19 7 0 2 -8 -9 -19 -27 -23 -28 -31 -2 -31 11 0 19 -3
19 -7 -3 -21 3 -28 29 -27 15 0 35 4 44 8 38 17 63 3 74 -44 8 -30 16 -44 25
-41 8 2 21 6 31 8 12 4 19 -7 31 -49 25 -87 29 -132 17 -180 -16 -63 -49 -93
-87 -81 -19 7 -27 16 -25 27 3 14 0 16 -14 8 -9 -5 -18 -24 -19 -41 -2 -20
-13 -40 -29 -54 -14 -13 -26 -26 -26 -30 0 -14 38 -7 44 9 4 10 13 13 25 9 27
-8 203 89 224 125 25 42 85 90 112 90 14 0 25 5 25 10 0 6 6 10 14 10 7 0 25
11 40 25 15 14 33 25 41 25 8 0 17 5 20 10 3 6 13 10 21 10 9 0 22 7 30 15 8
8 21 12 29 9 33 -13 95 100 95 172 0 45 -22 106 -47 132 -7 7 -16 24 -19 38
-3 13 -10 24 -15 24 -5 0 -9 6 -9 14 0 8 -6 21 -12 28 -21 23 -58 77 -58 85 0
9 -38 34 -102 70 -22 12 -49 28 -61 36 -12 8 -36 17 -53 21 -21 5 -31 13 -30
24 1 14 -6 16 -41 14 -52 -4 -69 4 -52 25 11 12 9 13 -13 8 -19 -5 -29 -1 -40
14 -15 21 -92 60 -119 61 -9 0 -20 7 -23 16 -4 11 -13 14 -31 10 -21 -5 -25
-3 -25 17 0 30 -10 40 -26 26 -9 -7 -22 -1 -49 25 -27 26 -46 36 -69 36 -18 0
-41 7 -52 15 -11 8 -41 14 -71 15 -42 0 -54 4 -63 20 -6 11 -17 20 -25 20 -8
0 -20 9 -28 20 -7 10 -25 24 -40 29 -23 9 -27 8 -27 -7 0 -9 -8 -2 -18 18 -18
33 -21 34 -85 37 -36 1 -83 9 -104 18 -51 22 -161 35 -212 25 -22 -4 -41 -3
-41 1 0 9 -17 10 -60 2z m233 -297 c32 -30 29 -42 -26 -88 -60 -50 -85 -56
-92 -24 -3 14 -7 37 -10 50 -3 14 -1 28 5 31 5 3 10 15 10 25 0 37 75 41 113
6z m195 4 c12 -12 22 -25 22 -30 0 -13 53 -13 66 0 17 17 126 14 187 -5 42
-14 63 -27 75 -47 14 -24 20 -27 52 -22 36 6 92 -17 127 -52 8 -7 21 -14 29
-14 14 0 37 -41 43 -78 0 -4 17 -6 37 -4 28 4 41 -1 65 -24 16 -15 32 -42 35
-61 5 -26 11 -33 30 -33 35 0 77 -41 76 -76 0 -36 14 -45 56 -38 33 6 67 -10
56 -27 -3 -5 0 -25 7 -44 12 -31 11 -36 -7 -50 -10 -8 -25 -12 -31 -10 -7 2
-13 0 -13 -4 0 -18 -32 -20 -56 -5 -18 12 -24 25 -24 50 0 38 -3 39 -49 23
-45 -16 -59 0 -63 69 -2 45 -6 56 -18 53 -50 -14 -77 -11 -103 9 -15 12 -27
30 -27 41 0 23 -12 24 -52 3 -33 -17 -92 -12 -105 9 -5 7 -34 25 -65 42 -45
23 -58 34 -58 52 0 21 -3 23 -40 17 -72 -12 -181 35 -227 97 -9 12 -28 17 -64
17 -54 1 -78 18 -79 57 0 11 -4 26 -9 34 -10 16 13 48 44 61 34 14 60 11 83
-10z m-444 -27 c3 -10 8 -23 12 -30 3 -7 -7 -11 -30 -10 -20 1 -36 5 -36 9 0
4 4 8 9 8 5 0 11 9 14 20 6 25 23 26 31 3z m-8 -80 c-5 -40 -5 -40 -20 -13
-16 27 -12 40 9 40 9 0 13 -9 11 -27z m-186 -252 c0 -4 -10 -20 -21 -35 -17
-21 -24 -25 -33 -15 -8 8 -8 13 3 16 7 3 21 14 29 24 18 21 22 23 22 10z m-79
-84 c-10 -9 -11 -8 -5 6 3 10 9 15 12 12 3 -3 0 -11 -7 -18z"/>
<path d="M4990 5030 c0 -5 5 -10 10 -10 6 0 10 5 10 10 0 6 -4 10 -10 10 -5 0
-10 -4 -10 -10z"/>
<path d="M8229 4630 c-6 -34 -9 -309 -3 -329 6 -22 10 -15 25 49 21 86 17 212
-7 258 -7 15 -14 25 -15 22z"/>
<path d="M5963 4321 c-19 -30 -16 -51 7 -51 11 0 20 -4 20 -10 0 -5 -10 -10
-22 -10 -32 0 -16 -10 26 -15 30 -4 36 -2 36 13 0 11 -11 24 -24 30 -15 7 -26
21 -28 37 -3 25 -3 25 -15 6z"/>
<path d="M6370 4233 c-45 -32 -69 -56 -64 -64 5 -9 22 2 52 34 9 9 22 17 29
17 7 0 13 7 13 15 0 19 0 19 -30 -2z"/>
<path d="M6575 2920 c-18 -8 -17 -9 8 -9 15 -1 27 4 27 9 0 12 -8 12 -35 0z"/>
<path d="M8100 2450 c0 -5 5 -10 11 -10 5 0 7 5 4 10 -3 6 -8 10 -11 10 -2 0
-4 -4 -4 -10z"/>
<path d="M3307 2212 c-25 -26 -26 -31 -15 -60 15 -39 36 -41 68 -7 20 22 22
29 12 43 -7 9 -15 25 -18 35 -8 23 -16 22 -47 -11z"/>
<path d="M3400 2215 c-7 -9 -11 -18 -8 -20 3 -3 11 1 18 10 7 9 11 18 8 20 -3
3 -11 -1 -18 -10z"/>
<path d="M8510 2042 c0 -107 -33 -358 -57 -438 -12 -40 -14 -72 -8 -139 4 -52
3 -118 -4 -164 -27 -191 -36 -310 -26 -341 l11 -31 94 67 c257 181 465 358
703 597 145 146 176 181 166 193 -6 8 -21 14 -33 14 -12 0 -31 6 -41 14 -12 9
-32 12 -52 9 -18 -3 -33 -1 -33 4 0 5 -25 17 -55 27 -30 9 -55 21 -55 27 0 5
-11 9 -25 9 -14 0 -25 5 -25 11 0 6 -9 8 -20 4 -14 -4 -22 -1 -26 10 -4 10
-14 15 -25 12 -11 -3 -17 -1 -13 4 3 5 -3 9 -13 9 -24 0 -124 47 -122 57 3 19
-2 27 -10 14 -7 -11 -15 -9 -42 11 -19 13 -47 31 -63 38 -16 8 -44 29 -63 46
-31 29 -41 32 -99 32 l-64 1 0 -97z"/>
<path d="M3346 2107 c-25 -18 -17 -49 16 -65 24 -11 30 -10 47 7 16 16 17 21
5 25 -8 3 -14 12 -14 20 0 7 -7 17 -16 20 -20 8 -17 8 -38 -7z"/>
<path d="M3385 1994 c-30 -31 -15 -59 37 -67 l38 -6 -15 36 c-8 19 -15 37 -15
38 0 12 -33 11 -45 -1z"/>
<path d="M3434 1876 c-12 -31 1 -51 34 -54 39 -4 43 15 9 46 -27 26 -36 27
-43 8z"/>
<path d="M7872 1775 c9 -10 21 -16 28 -13 7 2 -1 10 -16 17 -27 12 -28 11 -12
-4z"/>
<path d="M3685 1594 c-38 -33 -39 -34 -12 -28 36 8 60 -11 46 -37 -11 -21 1
-30 36 -26 12 1 19 -3 17 -12 -4 -22 18 -41 49 -41 15 0 31 -4 34 -10 8 -12
35 -13 53 -1 12 7 12 12 1 29 -19 31 -36 34 -71 16 -30 -15 -32 -15 -45 2 -7
10 -13 21 -13 26 0 14 39 48 55 48 8 0 15 7 15 15 0 8 -4 15 -10 15 -5 0 -10
-4 -10 -10 0 -5 -5 -10 -11 -10 -8 0 -8 5 1 15 7 8 10 22 6 30 -6 17 -41 20
-51 5 -4 -7 -12 -7 -25 0 -24 13 -19 15 -65 -26z"/>
<path d="M8146 1593 c-10 -10 -7 -17 20 -48 39 -44 74 -102 74 -121 0 -10 11
-31 23 -48 13 -17 29 -46 35 -65 7 -19 20 -43 28 -53 27 -29 11 -86 -48 -175
-29 -43 -56 -79 -59 -81 -3 -1 -15 -9 -25 -17 -18 -13 -17 -15 19 -30 37 -15
63 -13 51 6 -3 5 3 27 15 48 11 22 25 58 31 80 6 23 15 41 20 41 11 0 30 65
30 105 0 17 9 48 20 70 26 51 25 71 -5 97 -33 28 -65 92 -65 127 0 25 -6 31
-42 44 -50 18 -114 28 -122 20z"/>
<path d="M7590 1166 c0 -29 8 -46 38 -77 l38 -41 90 -2 c81 -1 94 2 127 24 35
24 77 84 66 94 -3 3 -16 -2 -30 -12 -43 -30 -140 -61 -194 -62 -23 0 -41 12
-82 56 l-53 56 0 -36z"/>
<path d="M6635 990 c-10 -16 4 -30 29 -30 29 0 39 10 25 27 -13 15 -45 17 -54
3z"/>
<path d="M7760 589 c0 -9 -8 -19 -18 -21 -10 -3 -19 -12 -19 -21 0 -14 3 -14
29 -1 30 16 33 21 18 44 -8 13 -10 13 -10 -1z"/>
<path d="M6720 556 c-55 -22 -55 -23 -55 -65 0 -38 -4 -45 -31 -59 -44 -24
-79 -54 -93 -80 -20 -37 -17 -122 6 -173 l21 -47 63 13 c91 19 271 69 400 111
l110 35 -26 30 c-14 17 -25 34 -25 38 0 17 -108 114 -152 137 -27 13 -50 24
-53 24 -29 -1 -37 4 -50 30 -19 36 -39 38 -115 6z"/>
<path d="M7695 530 c-3 -5 -1 -10 4 -10 6 0 11 5 11 10 0 6 -2 10 -4 10 -3 0
-8 -4 -11 -10z"/>
<path d="M4499 126 c-10 -22 -18 -40 -16 -42 4 -4 205 -34 231 -34 33 0 34 23
1 38 -17 8 -25 20 -25 37 0 18 -6 25 -20 26 -20 2 -34 4 -47 9 -5 2 -30 4 -56
4 -47 1 -50 0 -68 -38z"/>
<path d="M5557 113 c-8 -10 -22 -37 -30 -60 l-15 -43 97 0 c129 0 261 11 261
21 0 5 -6 9 -12 9 -13 0 -149 50 -205 76 -42 19 -77 18 -96 -3z"/>
</g>
</svg>
