<?xml version="1.0" standalone="no"?>
<!DOCTYPE svg PUBLIC "-//W3C//DTD SVG 20010904//EN"
 "http://www.w3.org/TR/2001/REC-SVG-20010904/DTD/svg10.dtd">
<svg version="1.0" xmlns="http://www.w3.org/2000/svg"
 width="620.000000pt" height="620.000000pt" viewBox="0 0 620.000000 620.000000"
 preserveAspectRatio="xMidYMid meet">
<metadata>
Created by potrace 1.14, written by Peter Selinger 2001-2017
</metadata>
<g transform="translate(0.000000,620.000000) scale(0.100000,-0.100000)"
fill="#000000" stroke="none">
<path d="M2819 6196 c-2 -2 -42 -6 -89 -9 -47 -4 -96 -8 -110 -11 -14 -2 -43
-7 -65 -10 -22 -3 -51 -8 -65 -10 -14 -3 -43 -7 -65 -11 -67 -9 -296 -73 -420
-115 -258 -89 -493 -212 -765 -400 -87 -60 -255 -205 -364 -315 -242 -242
-430 -508 -578 -815 -36 -74 -69 -146 -73 -160 -4 -14 -11 -29 -15 -35 -14
-18 -98 -287 -124 -395 -24 -102 -48 -228 -61 -320 -28 -209 -28 -840 0 -974
2 -12 7 -39 9 -61 12 -92 34 -198 67 -325 95 -362 273 -730 493 -1019 23 -29
50 -66 61 -81 73 -98 235 -268 376 -392 225 -198 542 -396 808 -505 248 -101
552 -182 776 -208 28 -3 66 -8 85 -11 56 -9 668 -12 750 -4 147 16 186 21 275
36 50 8 117 22 150 31 33 8 67 17 75 18 197 46 489 162 695 277 150 84 385
241 451 303 6 5 40 35 75 65 243 210 466 481 628 762 54 95 151 292 175 354 8
21 28 75 44 119 53 142 109 344 128 462 3 19 7 44 9 53 2 10 7 40 11 67 3 26
8 57 10 68 27 140 26 781 -1 957 -3 18 -7 47 -9 63 -13 109 -74 375 -104 455
-3 8 -6 17 -7 20 -9 39 -66 191 -95 255 -103 232 -210 420 -338 595 -31 41
-58 77 -62 80 -3 3 -13 14 -21 26 -43 63 -264 296 -344 364 -44 37 -167 140
-188 157 -113 90 -414 267 -579 340 -194 87 -508 185 -663 208 -22 3 -47 8
-55 10 -8 3 -32 7 -52 10 -21 3 -55 8 -75 11 -21 3 -56 8 -78 10 -49 6 -681
15 -686 10z"/>
</g>
</svg>
